<?xml version="1.0" standalone="no"?>
<svg xmlns:xlink="http://www.w3.org/1999/xlink" id="wave" style="transform:rotate(0deg); transition: 0.3s" viewBox="0 0 1440 170" version="1.1" xmlns="http://www.w3.org/2000/svg"><defs><linearGradient id="sw-gradient-0" x1="0" x2="0" y1="1" y2="0"><stop stop-color="rgba(0, 153, 255, 1)" offset="0%"/><stop stop-color="rgba(0, 153, 255, 1)" offset="100%"/></linearGradient></defs><path style="transform:translate(0, 0px); opacity:1" fill="url(#sw-gradient-0)" d="M0,153L60,130.3C120,108,240,62,360,53.8C480,45,600,74,720,87.8C840,102,960,102,1080,85C1200,68,1320,34,1440,19.8C1560,6,1680,11,1800,25.5C1920,40,2040,62,2160,65.2C2280,68,2400,51,2520,36.8C2640,23,2760,11,2880,5.7C3000,0,3120,0,3240,2.8C3360,6,3480,11,3600,34C3720,57,3840,96,3960,93.5C4080,91,4200,45,4320,31.2C4440,17,4560,34,4680,42.5C4800,51,4920,51,5040,45.3C5160,40,5280,28,5400,45.3C5520,62,5640,108,5760,110.5C5880,113,6000,74,6120,70.8C6240,68,6360,102,6480,104.8C6600,108,6720,79,6840,76.5C6960,74,7080,96,7200,99.2C7320,102,7440,85,7560,79.3C7680,74,7800,79,7920,82.2C8040,85,8160,85,8280,85C8400,85,8520,85,8580,85L8640,85L8640,170L8580,170C8520,170,8400,170,8280,170C8160,170,8040,170,7920,170C7800,170,7680,170,7560,170C7440,170,7320,170,7200,170C7080,170,6960,170,6840,170C6720,170,6600,170,6480,170C6360,170,6240,170,6120,170C6000,170,5880,170,5760,170C5640,170,5520,170,5400,170C5280,170,5160,170,5040,170C4920,170,4800,170,4680,170C4560,170,4440,170,4320,170C4200,170,4080,170,3960,170C3840,170,3720,170,3600,170C3480,170,3360,170,3240,170C3120,170,3000,170,2880,170C2760,170,2640,170,2520,170C2400,170,2280,170,2160,170C2040,170,1920,170,1800,170C1680,170,1560,170,1440,170C1320,170,1200,170,1080,170C960,170,840,170,720,170C600,170,480,170,360,170C240,170,120,170,60,170L0,170Z"/></svg>